<svg width="340" height="87" viewBox="0 0 340 87" fill="none" xmlns="http://www.w3.org/2000/svg">
<mask id="mask0" mask-type="alpha" maskUnits="userSpaceOnUse" x="0" y="6" width="35" height="81">
<path d="M0 6.71802H34.6934V86.8478H0V6.71802Z" fill="white"/>
</mask>
<g mask="url(#mask0)">
<path fill-rule="evenodd" clip-rule="evenodd" d="M3.90468 80.373H0L26.8129 6.71802L29.2859 11.2537L3.90468 80.373Z" fill="#1A1919"/>
<path fill-rule="evenodd" clip-rule="evenodd" d="M9.83369 86.8811H6.05896L32.416 13.8904L34.6935 20.0133L9.83369 86.8811Z" fill="#636463"/>
</g>
<path fill-rule="evenodd" clip-rule="evenodd" d="M19.417 82.9372H15.6428L36.0686 26.0442L38.3461 32.1671L19.417 82.9372Z" fill="#9E9F9E"/>
<path fill-rule="evenodd" clip-rule="evenodd" d="M31.0268 6.76636H26.7636L54.7472 80.3728H58.522L31.0268 6.76636Z" fill="#1A1919"/>
<path fill-rule="evenodd" clip-rule="evenodd" d="M36.2977 0H32.0026L64.5042 84.7748H68.2789L36.2977 0Z" fill="#636463"/>
<path fill-rule="evenodd" clip-rule="evenodd" d="M47.0169 6.89575H42.7218L69.4188 76.4193H73.193L47.0169 6.89575Z" fill="#9E9F9E"/>
<path fill-rule="evenodd" clip-rule="evenodd" d="M121.93 34.4821L116.263 47.4172H127.597L121.93 34.4821ZM129.908 52.756H113.952L111.336 58.4857H105.102L118.791 28.1021H125.069L138.758 58.4857H132.48L129.908 52.756Z" fill="#1A1919"/>
<path fill-rule="evenodd" clip-rule="evenodd" d="M157.327 33.3103H147.649V28.1021C156.455 28.1021 163.91 28.1021 172.76 28.1021V33.3103H163.082V58.4857H157.327V33.3103Z" fill="#1A1919"/>
<path fill-rule="evenodd" clip-rule="evenodd" d="M195.121 33.4409V43.1637H203.884C207.546 43.1637 209.115 40.7327 209.115 38.3017C209.115 35.8713 207.503 33.4409 203.884 33.4409H195.121ZM216.396 58.4857H209.551L200.657 48.3285H195.121V58.4857H189.367V28.0586C194.206 28.0586 199.045 28.1021 203.884 28.1021C211.077 28.145 214.87 32.92 214.87 38.1712C214.87 42.3383 212.951 46.5489 207.154 47.7211L216.396 58.0948V58.4857Z" fill="#1A1919"/>
<path fill-rule="evenodd" clip-rule="evenodd" d="M231.869 58.4857H237.579V28.1021H231.869V58.4857Z" fill="#1A1919"/>
<path fill-rule="evenodd" clip-rule="evenodd" d="M281.958 28.145V45.5506C281.958 54.5356 276.421 59.1366 268.748 59.1366C261.424 59.1366 255.19 54.7096 255.19 45.5506V28.145H260.901V45.5506C260.901 51.0199 264.04 53.9277 268.792 53.9277C273.543 53.9277 276.246 50.7595 276.246 45.5506V28.145H281.958Z" fill="#1A1919"/>
<path fill-rule="evenodd" clip-rule="evenodd" d="M319.49 35.4369C318.443 33.7008 315.566 32.0517 312.253 32.0517C307.981 32.0517 305.932 33.8313 305.932 36.0883C305.932 38.7362 309.071 39.4741 312.732 39.9085C319.098 40.6893 325.027 42.3384 325.027 49.5878C325.027 56.3588 319.01 59.2677 312.21 59.2677C305.975 59.2677 301.179 57.357 298.913 51.8013L303.708 49.3268C305.059 52.6696 308.591 54.1447 312.296 54.1447C315.915 54.1447 319.315 52.886 319.315 49.5878C319.315 46.7229 316.308 45.5507 312.253 45.1168C306.019 44.379 300.264 42.7293 300.264 35.9149C300.264 29.6642 306.455 27.1033 312.079 27.0598C316.831 27.0598 321.757 28.4055 324.068 33.0929L319.49 35.4369Z" fill="#1A1919"/>
<path fill-rule="evenodd" clip-rule="evenodd" d="M334.902 28.7551H336.028L337.259 30.7238L338.491 28.7551H339.586V33.4185H338.582V30.2693L337.29 32.3132H337.199L335.906 30.2693V33.4185H334.902V28.7551ZM331.45 29.6937H330.051V28.7551H333.914V29.6937H332.514V33.4185H331.45V29.6937Z" fill="#1A1919"/>
</svg>
